<svg width="18" height="16" viewBox="0 0 18 16" fill="none" xmlns="http://www.w3.org/2000/svg">
<path id="Vector" d="M0 4.66667H3.75V16H0V4.66667ZM1.86375 3.33333H1.84275C0.72375 3.33333 0 2.592 0 1.666C0 0.72 0.74625 0 1.8855 0C3.02625 0 3.729 0.72 3.75 1.666C3.75 2.59133 3.02625 3.33333 1.86375 3.33333ZM18 16H14.25V9.934C14.25 8.46867 13.3313 7.46867 11.856 7.46867C10.7303 7.46867 10.1213 8.14333 9.82575 8.79533C9.71775 9.02867 9.75 9.674 9.75 10V16H6V4.66667H9.75V6.41067C10.2907 5.66667 11.1375 4.66667 13.3035 4.66667C15.987 4.66667 17.9993 6.16667 17.9993 9.516L18 16Z" fill="white"/>
</svg>
