<svg width="20" height="16" viewBox="0 0 20 16" fill="none" xmlns="http://www.w3.org/2000/svg">
<path id="Path" d="M17.633 3.978C17.646 4.153 17.646 4.327 17.646 4.501C17.646 9.826 13.593 15.962 6.186 15.962C3.904 15.962 1.784 15.301 0 14.153C0.324 14.19 0.636 14.203 0.973 14.203C2.856 14.203 4.589 13.567 5.974 12.482C4.203 12.445 2.719 11.285 2.207 9.689C2.456 9.726 2.706 9.751 2.968 9.751C3.329 9.751 3.692 9.701 4.029 9.614C2.182 9.24 0.799 7.619 0.799 5.661V5.611C1.336 5.91 1.959 6.097 2.619 6.122C1.534 5.4 0.823 4.165 0.823 2.768C0.823 2.02 1.022 1.334 1.371 0.736C3.354 3.179 6.335 4.776 9.677 4.951C9.615 4.651 9.577 4.34 9.577 4.028C9.577 1.808 11.373 0 13.605 0C14.765 0 15.812 0.486 16.548 1.272C17.458 1.097 18.33 0.76 19.104 0.299C18.805 1.234 18.168 2.02 17.333 2.519C18.144 2.431 18.93 2.207 19.652 1.895C19.104 2.693 18.419 3.404 17.633 3.978Z" fill="white"/>
</svg>
