<svg width="48" height="48" viewBox="0 0 48 48" fill="none" xmlns="http://www.w3.org/2000/svg">
  <path d="M12 36c-3-3-4-8-2-12 2-4 7-6 12-6s10 2 12 6c2 4 1 9-2 12-2 2-5 2-8 1h-4c-3 1-6 1-8-1z" fill="#fff"/>
  <rect x="16" y="28" width="2" height="6" rx="1" fill="#7C3AED"/>
  <rect x="14" y="30" width="6" height="2" rx="1" fill="#7C3AED"/>
  <circle cx="20" cy="34" r="1.2" fill="#7C3AED"/>
  <circle cx="28" cy="34" r="1.2" fill="#7C3AED"/>
  <circle cx="34" cy="30" r="1.2" fill="#7C3AED"/>
  <circle cx="36.5" cy="28.5" r="1" fill="#3B82F6"/>
  <circle cx="33.5" cy="32.5" r="1" fill="#10B981"/>
  <circle cx="37.5" cy="32.5" r="1" fill="#EF4444"/>
  <circle cx="35.5" cy="34.5" r="1" fill="#A21CAF"/>
</svg> 