<svg width="142" height="40" viewBox="0 0 142 40" fill="none" xmlns="http://www.w3.org/2000/svg">
<g id="Google play">
<rect id="Rectangle" width="142" height="40" rx="20" fill="white"/>
<path id="Getiton" fill-rule="evenodd" clip-rule="evenodd" d="M62.6736 9.89556C62.6736 10.0449 62.7275 10.1729 62.8352 10.2796C62.9486 10.3809 63.0846 10.4316 63.2433 10.4316C63.4021 10.4316 63.5381 10.3796 63.6515 10.2756C63.7649 10.1716 63.8215 10.0449 63.8215 9.89556C63.8215 9.74089 63.7649 9.61156 63.6515 9.50756C63.5381 9.40356 63.4021 9.35156 63.2433 9.35156C63.0846 9.35156 62.95 9.40489 62.8394 9.51156C62.7289 9.61823 62.6736 9.74623 62.6736 9.89556ZM51.2286 15.1996H51.9003V12.4236H49.0178V13.1276H51.1096C51.0982 13.2876 51.0571 13.4476 50.9863 13.6076C50.9154 13.7676 50.8105 13.9262 50.6717 14.0836C50.5328 14.2409 50.34 14.3676 50.0935 14.4636C49.8469 14.5596 49.5649 14.6076 49.2474 14.6076C48.6692 14.6076 48.1746 14.4116 47.7636 14.0196C47.3527 13.6276 47.1472 13.0742 47.1472 12.3596C47.1472 11.6502 47.3569 11.1009 47.7764 10.7116C48.1959 10.3222 48.6976 10.1276 49.2814 10.1276C49.7463 10.1276 50.1473 10.2409 50.4846 10.4676C50.8219 10.6942 51.0586 11.0129 51.1946 11.4236L51.9514 11.1196C51.7756 10.6022 51.4483 10.1876 50.9693 9.87556C50.4903 9.56356 49.9277 9.40756 49.2814 9.40756C48.7712 9.40756 48.2937 9.51689 47.8487 9.73556C47.4037 9.95423 47.0338 10.2929 46.739 10.7516C46.4443 11.2102 46.2969 11.7462 46.2969 12.3596C46.2969 12.9729 46.4372 13.5089 46.7178 13.9676C46.9984 14.4262 47.3569 14.7662 47.7934 14.9876C48.2299 15.2089 48.7061 15.3196 49.2219 15.3196C49.6924 15.3196 50.0949 15.2289 50.4293 15.0476C50.7638 14.8662 51.0047 14.6502 51.1521 14.3996L51.2286 15.1996ZM55.8542 12.8796H53.618C53.635 12.6129 53.7455 12.3822 53.9496 12.1876C54.1536 11.9929 54.4144 11.8956 54.7318 11.8956C55.0833 11.8956 55.3554 11.9876 55.5481 12.1716C55.7409 12.3556 55.8429 12.5916 55.8542 12.8796ZM55.9733 13.8796L56.662 14.1036C56.543 14.4609 56.3219 14.7529 55.9988 14.9796C55.6757 15.2062 55.2845 15.3196 54.8254 15.3196C54.2528 15.3196 53.7668 15.1342 53.3671 14.7636C52.9675 14.3929 52.7677 13.8929 52.7677 13.2636C52.7677 12.6769 52.9604 12.1916 53.3459 11.8076C53.7313 11.4236 54.1905 11.2316 54.7233 11.2316C55.3412 11.2316 55.8231 11.4142 56.1689 11.7796C56.5146 12.1449 56.6875 12.6342 56.6875 13.2476C56.6875 13.3436 56.6819 13.4236 56.6705 13.4876H53.5924C53.5981 13.8289 53.7186 14.1089 53.9538 14.3276C54.1891 14.5462 54.4796 14.6556 54.8254 14.6556C55.4093 14.6556 55.7919 14.3969 55.9733 13.8796ZM58.7793 11.3516V10.1356H58.048V10.7596C58.048 10.9356 57.9956 11.0782 57.8907 11.1876C57.7858 11.2969 57.6285 11.3516 57.4188 11.3516H57.1977V12.0316H57.98V14.1436C57.98 14.4902 58.082 14.7596 58.2861 14.9516C58.4902 15.1436 58.7679 15.2396 59.1194 15.2396C59.3461 15.2396 59.5275 15.2156 59.6636 15.1676V14.5276C59.5729 14.5489 59.468 14.5596 59.349 14.5596C59.1449 14.5596 58.9989 14.5169 58.9111 14.4316C58.8232 14.3462 58.7793 14.2129 58.7793 14.0316V12.0316H59.6636V11.3516H58.7793ZM63.643 15.1996H62.8522V11.3516H63.643V15.1996ZM66.0748 10.1356V11.3516H66.9592V12.0316H66.0748V14.0316C66.0748 14.2129 66.1188 14.3462 66.2066 14.4316C66.2945 14.5169 66.4405 14.5596 66.6445 14.5596C66.7636 14.5596 66.8685 14.5489 66.9592 14.5276V15.1676C66.8231 15.2156 66.6417 15.2396 66.415 15.2396C66.0635 15.2396 65.7857 15.1436 65.5817 14.9516C65.3776 14.7596 65.2756 14.4902 65.2756 14.1436V12.0316H64.4933V11.3516H64.7144C64.9241 11.3516 65.0814 11.2969 65.1863 11.1876C65.2911 11.0782 65.3436 10.9356 65.3436 10.7596V10.1356H66.0748ZM71.8994 14.6476C71.5423 14.6476 71.239 14.5276 70.9896 14.2876C70.7458 14.0422 70.6239 13.7036 70.6239 13.2716C70.6239 12.8449 70.7472 12.5102 70.9938 12.2676C71.2404 12.0249 71.5423 11.9036 71.8994 11.9036C72.2565 11.9036 72.5584 12.0249 72.805 12.2676C73.0515 12.5102 73.1748 12.8449 73.1748 13.2716C73.1748 13.7036 73.0515 14.0409 72.805 14.2836C72.5584 14.5262 72.2565 14.6476 71.8994 14.6476ZM70.3944 11.8156C70.7912 11.4262 71.2928 11.2316 71.8994 11.2316C72.5059 11.2316 73.0062 11.4249 73.4002 11.8116C73.7941 12.1982 73.9911 12.6849 73.9911 13.2716C73.9911 13.8636 73.7956 14.3529 73.4044 14.7396C73.0133 15.1262 72.5116 15.3196 71.8994 15.3196C71.2872 15.3196 70.7855 15.1262 70.3944 14.7396C70.0032 14.3529 69.8077 13.8636 69.8077 13.2716C69.8077 12.6849 70.0032 12.1996 70.3944 11.8156ZM75.8108 15.1996V12.9756C75.8108 12.6716 75.8944 12.4196 76.0616 12.2196C76.2288 12.0196 76.4627 11.9196 76.7631 11.9196C77.398 11.9196 77.7154 12.2422 77.7154 12.8876V15.1996H78.5147V12.7596C78.5147 12.3116 78.3886 11.9462 78.1363 11.6636C77.8841 11.3809 77.5227 11.2396 77.0522 11.2396C76.4853 11.2396 76.0659 11.4609 75.7938 11.9036V11.3516H75.0115V15.1996H75.8108Z" fill="#0A142F"/>
<path id="GooglePlay" fill-rule="evenodd" clip-rule="evenodd" d="M55.6268 24.2052V28.8004H54.3071L54.1847 27.6484C53.7629 28.314 52.7698 28.9924 51.2324 28.9924C48.7156 28.9924 46.4844 27.2516 46.4844 24.2564C46.4844 21.274 48.838 19.5332 51.3413 19.5332C53.6813 19.5332 55.1778 20.8004 55.6948 22.298L54.1575 22.8484C53.831 21.8244 52.8786 20.954 51.3413 20.954C49.7767 20.954 48.1442 22.0036 48.1442 24.2564C48.1442 26.4708 49.6679 27.5844 51.3277 27.5844C53.2732 27.5844 54.0078 26.33 54.0895 25.5492H50.9059V24.2052H55.6268ZM58.5246 25.6772C58.5246 26.97 59.4089 27.6612 60.3749 27.6612C61.3544 27.6612 62.2251 26.9828 62.2251 25.6772C62.2251 24.3844 61.3544 23.7188 60.3749 23.7188C59.4089 23.7188 58.5246 24.3844 58.5246 25.6772ZM60.3749 22.3748C58.4022 22.3748 56.9465 23.77 56.9465 25.6772C56.9465 27.5972 58.4022 28.9924 60.3749 28.9924C62.3612 28.9924 63.8169 27.5972 63.8169 25.6772C63.8169 23.77 62.3612 22.3748 60.3749 22.3748ZM66.4018 25.6772C66.4018 26.97 67.2861 27.6612 68.252 27.6612C69.2316 27.6612 70.1023 26.9828 70.1023 25.6772C70.1023 24.3844 69.2316 23.7188 68.252 23.7188C67.2861 23.7188 66.4018 24.3844 66.4018 25.6772ZM68.252 22.3748C66.2793 22.3748 64.8236 23.77 64.8236 25.6772C64.8236 27.5972 66.2793 28.9924 68.252 28.9924C70.2383 28.9924 71.6941 27.5972 71.6941 25.6772C71.6941 23.77 70.2383 22.3748 68.252 22.3748ZM75.8979 31.4244C74.1429 31.4244 72.9185 30.4004 72.7416 29.146L74.1973 28.7876C74.3062 29.5556 74.9456 30.1316 75.8571 30.1316C77.1088 30.1316 77.7346 29.53 77.7346 28.2628V27.61C77.4489 28.0964 76.7822 28.5188 75.8163 28.5188C74.0477 28.5188 72.7552 27.2388 72.7552 25.4852C72.7552 23.8212 73.9933 22.4516 75.8163 22.4516C76.8503 22.4516 77.4897 22.8484 77.7754 23.3604V22.5668H79.2991V28.2116C79.2991 29.8756 78.3876 31.4244 75.8979 31.4244ZM76.0748 27.2516C75.0408 27.2516 74.347 26.5732 74.347 25.4852C74.347 24.4228 75.068 23.7316 76.0748 23.7316C77.0543 23.7316 77.7754 24.4228 77.7754 25.4852C77.7754 26.5604 77.0816 27.2516 76.0748 27.2516ZM82.8092 19.5332V28.8004H81.231V19.5332H82.8092ZM85.9519 24.9988C86.0063 24.3332 86.5777 23.6164 87.5708 23.6164C88.6592 23.6164 89.1762 24.2692 89.2034 24.9988H85.9519ZM87.7205 27.7124C88.6728 27.7124 89.1626 27.2388 89.3803 26.6244L90.7136 27.0212C90.3598 28.1092 89.3123 28.9924 87.7205 28.9924C85.9247 28.9924 84.3329 27.7636 84.3329 25.6516C84.3329 23.6804 85.8839 22.3748 87.5572 22.3748C89.598 22.3748 90.7952 23.642 90.7952 25.6132C90.7952 25.8564 90.768 26.0612 90.7544 26.0868H85.9111C85.9519 27.034 86.741 27.7124 87.7205 27.7124ZM97.4479 23.898V21.082H99.1485C100.182 21.082 100.808 21.6324 100.808 22.5028C100.808 23.3604 100.182 23.898 99.1485 23.898H97.4479ZM102.468 22.49C102.468 24.09 101.244 25.2548 99.3934 25.2548H97.4479V28.8004H95.8153V19.7252H99.3934C101.244 19.7252 102.468 20.9028 102.468 22.49ZM105.448 28.8004V19.5332H103.869V28.8004H105.448ZM109.325 28.9924C107.937 28.9924 107.08 28.0964 107.08 27.1108C107.08 25.9972 107.951 25.3828 109.08 25.2292L110.781 24.986C111.162 24.9348 111.27 24.7556 111.27 24.538C111.27 24.0132 110.889 23.5908 110.019 23.5908C109.189 23.5908 108.726 24.09 108.658 24.7172L107.216 24.41C107.339 23.3348 108.373 22.3748 110.005 22.3748C112.046 22.3748 112.821 23.4628 112.821 24.7044L112.823 27.9387C112.829 28.2481 112.855 28.4889 112.876 28.6383L112.903 28.8004H111.434C111.42 28.762 111.366 28.506 111.366 28.0068C111.053 28.4804 110.4 28.9924 109.325 28.9924ZM109.624 27.8276C108.998 27.8276 108.658 27.4436 108.658 27.0212C108.658 26.5092 109.053 26.2532 109.543 26.1764L111.27 25.9332V26.2148C111.27 27.4308 110.509 27.8276 109.624 27.8276ZM115.053 31.322H116.74L120.957 22.5668H119.284L117.501 26.5092L115.597 22.5668H113.814L116.644 28.058L115.053 31.322Z" fill="#0A142F"/>
<g id="google-play">
<g id="Google_Play_Shape">
<path id="Path" d="M17.0893 11.3047C17.0414 11.4652 17.0078 11.6374 17.0078 11.8348V28.0864C17.0078 28.2811 17.0402 28.4524 17.0871 28.6108L26.7188 19.9693L17.0893 11.3047Z" fill="#48A0DC"/>
</g>
<g id="Google_Play_Shape_5_">
<path id="Path_2" d="M19.2322 10.6726C18.7839 10.4137 18.3419 10.3489 17.9688 10.4383L27.6407 19.1413L30.4777 16.5964L19.2322 10.6726Z" fill="#88C057"/>
</g>
<g id="Google_Play_Shape_2_">
<path id="Path_3" d="M34.623 18.7805L31.6211 17.1992L28.5469 19.9574L31.6788 22.7762L34.5999 21.2573C36.0244 20.4884 35.5041 19.2494 34.623 18.7805Z" fill="#FFCC66"/>
</g>
<g id="Google_Play_Shape_3_">
<path id="Path_4" d="M27.6215 20.7832L17.9375 29.4706C18.3164 29.5711 18.7685 29.5114 19.2283 29.2459L30.509 23.3812L27.6215 20.7832Z" fill="#ED7161"/>
</g>
</g>
</g>
</svg>
