<svg width="142" height="42" viewBox="0 0 142 42" fill="none" xmlns="http://www.w3.org/2000/svg">
<g id="App store">
<rect id="Rectangle" width="142" height="42" rx="21" fill="white"/>
<path id="Downloadonthe" fill-rule="evenodd" clip-rule="evenodd" d="M69.9014 15.1207H69.1021V9.03906H69.9014V15.1207ZM46.6797 15.1207H48.7714C49.582 15.1207 50.2651 14.8589 50.8206 14.3353C51.3762 13.8117 51.6539 13.0851 51.6539 12.1555C51.6539 11.2203 51.379 10.4881 50.8291 9.95886C50.2793 9.42966 49.5991 9.16506 48.7884 9.16506H46.6797V15.1207ZM48.7459 14.3899H47.513V9.89586H48.7629C49.3525 9.89586 49.8385 10.0919 50.2212 10.4839C50.6038 10.8759 50.7951 11.4331 50.7951 12.1555C50.7951 12.8723 50.601 13.4239 50.2127 13.8103C49.8244 14.1967 49.3355 14.3899 48.7459 14.3899ZM53.5586 14.1631C53.808 14.4151 54.1113 14.5411 54.4684 14.5411C54.8256 14.5411 55.1274 14.4137 55.374 14.1589C55.6206 13.9041 55.7439 13.5499 55.7439 13.0963C55.7439 12.6483 55.6206 12.2969 55.374 12.0421C55.1274 11.7873 54.8256 11.6599 54.4684 11.6599C54.1113 11.6599 53.8094 11.7873 53.5629 12.0421C53.3163 12.2969 53.193 12.6483 53.193 13.0963C53.193 13.5499 53.3149 13.9055 53.5586 14.1631ZM54.4684 10.9543C53.8619 10.9543 53.3602 11.1587 52.9634 11.5675C52.5723 11.9707 52.3767 12.4803 52.3767 13.0963C52.3767 13.7179 52.5723 14.2317 52.9634 14.6377C53.3545 15.0437 53.8562 15.2467 54.4684 15.2467C55.0806 15.2467 55.5823 15.0437 55.9735 14.6377C56.3646 14.2317 56.5602 13.7179 56.5602 13.0963C56.5602 12.4803 56.3632 11.9693 55.9692 11.5633C55.5752 11.1573 55.075 10.9543 54.4684 10.9543ZM59.8848 11.0803H60.7096L61.7725 14.1211L62.6738 11.0803H63.5156L62.1891 15.1207H61.3644L60.276 12.0463L59.2131 15.1207H58.3713L57.0278 11.0803H57.9036L58.822 14.1211L59.8848 11.0803ZM65.1227 15.1207V12.7855C65.1227 12.4663 65.2063 12.2017 65.3735 11.9917C65.5407 11.7817 65.7746 11.6767 66.075 11.6767C66.7099 11.6767 67.0274 12.0155 67.0274 12.6931V15.1207H67.8266V12.5587C67.8266 12.0883 67.7005 11.7047 67.4482 11.4079C67.196 11.1111 66.8346 10.9627 66.3641 10.9627C65.7973 10.9627 65.3778 11.1951 65.1057 11.6599V11.0803H64.3234V15.1207H65.1227ZM73.0135 14.5411C72.6563 14.5411 72.3531 14.4151 72.1036 14.1631C71.8599 13.9055 71.738 13.5499 71.738 13.0963C71.738 12.6483 71.8613 12.2969 72.1079 12.0421C72.3545 11.7873 72.6563 11.6599 73.0135 11.6599C73.3706 11.6599 73.6724 11.7873 73.919 12.0421C74.1656 12.2969 74.2889 12.6483 74.2889 13.0963C74.2889 13.5499 74.1656 13.9041 73.919 14.1589C73.6724 14.4137 73.3706 14.5411 73.0135 14.5411ZM71.5084 11.5675C71.9052 11.1587 72.4069 10.9543 73.0135 10.9543C73.62 10.9543 74.1203 11.1573 74.5142 11.5633C74.9082 11.9693 75.1052 12.4803 75.1052 13.0963C75.1052 13.7179 74.9096 14.2317 74.5185 14.6377C74.1274 15.0437 73.6257 15.2467 73.0135 15.2467C72.4012 15.2467 71.8996 15.0437 71.5084 14.6377C71.1173 14.2317 70.9217 13.7179 70.9217 13.0963C70.9217 12.4803 71.1173 11.9707 71.5084 11.5675ZM76.2106 13.2013C75.9838 13.4113 75.8705 13.6899 75.8705 14.0371C75.8705 14.3675 75.998 14.6517 76.2531 14.8897C76.5082 15.1277 76.837 15.2467 77.2395 15.2467C77.5682 15.2467 77.8417 15.1795 78.06 15.0451C78.2782 14.9107 78.444 14.7539 78.5574 14.5747C78.5574 14.7707 78.5716 14.9527 78.5999 15.1207H79.3822C79.3482 14.9191 79.3312 14.6979 79.3312 14.4571V12.4327C79.3312 12.0015 79.1923 11.6473 78.9145 11.3701C78.6368 11.0929 78.2088 10.9543 77.6306 10.9543C77.1884 10.9543 76.8086 11.0761 76.4912 11.3197C76.1737 11.5633 75.9952 11.8783 75.9555 12.2647L76.7208 12.4411C76.7491 12.1947 76.8426 11.9973 77.0014 11.8489C77.1601 11.7005 77.3755 11.6263 77.6476 11.6263C77.9424 11.6263 78.1634 11.6935 78.3108 11.8279C78.4582 11.9623 78.5319 12.1359 78.5319 12.3487C78.5319 12.5223 78.427 12.6231 78.2173 12.6511L77.1119 12.8107C76.7378 12.8611 76.4373 12.9913 76.2106 13.2013ZM77.35 14.5831C77.7071 14.5831 77.9934 14.4879 78.2088 14.2975C78.4242 14.1071 78.5319 13.8047 78.5319 13.3903V13.2055L77.282 13.3903C77.1006 13.4183 76.956 13.4827 76.8483 13.5835C76.7406 13.6843 76.6868 13.8215 76.6868 13.9951C76.6868 14.1519 76.7477 14.2891 76.8696 14.4067C76.9914 14.5243 77.1516 14.5831 77.35 14.5831ZM81.3677 14.1295C81.1551 13.8607 81.0488 13.5135 81.0488 13.0879C81.0488 12.6679 81.1593 12.3263 81.3804 12.0631C81.6015 11.7999 81.8934 11.6683 82.2562 11.6683C82.619 11.6683 82.9053 11.7971 83.115 12.0547C83.3248 12.3123 83.4296 12.6511 83.4296 13.0711C83.4296 13.4967 83.3219 13.8467 83.1065 14.1211C82.8911 14.3955 82.6048 14.5327 82.2477 14.5327C81.8736 14.5327 81.5802 14.3983 81.3677 14.1295ZM83.4408 14.7253L83.4381 14.5075C83.3304 14.7147 83.1674 14.8869 82.9492 15.0241C82.731 15.1613 82.4716 15.2299 82.1712 15.2299C81.5873 15.2299 81.1182 15.0269 80.7639 14.6209C80.4096 14.2149 80.2325 13.7039 80.2325 13.0879C80.2325 12.4999 80.4139 12.0001 80.7767 11.5885C81.1395 11.1769 81.6043 10.9711 82.1712 10.9711C82.5056 10.9711 82.7777 11.0369 82.9875 11.1685C83.1972 11.3001 83.3418 11.4611 83.4211 11.6515V9.03906H84.2119V14.3731C84.2119 14.6475 84.2261 14.8967 84.2544 15.1207H83.4806C83.4594 15.0031 83.4461 14.8713 83.4408 14.7253ZM89.4497 14.5411C89.0926 14.5411 88.7893 14.4151 88.5399 14.1631C88.2962 13.9055 88.1743 13.5499 88.1743 13.0963C88.1743 12.6483 88.2976 12.2969 88.5442 12.0421C88.7908 11.7873 89.0926 11.6599 89.4497 11.6599C89.8069 11.6599 90.1087 11.7873 90.3553 12.0421C90.6019 12.2969 90.7252 12.6483 90.7252 13.0963C90.7252 13.5499 90.6019 13.9041 90.3553 14.1589C90.1087 14.4137 89.8069 14.5411 89.4497 14.5411ZM87.9447 11.5675C88.3415 11.1587 88.8432 10.9543 89.4497 10.9543C90.0563 10.9543 90.5565 11.1573 90.9505 11.5633C91.3445 11.9693 91.5415 12.4803 91.5415 13.0963C91.5415 13.7179 91.3459 14.2317 90.9548 14.6377C90.5636 15.0437 90.062 15.2467 89.4497 15.2467C88.8375 15.2467 88.3359 15.0437 87.9447 14.6377C87.5536 14.2317 87.358 13.7179 87.358 13.0963C87.358 12.4803 87.5536 11.9707 87.9447 11.5675ZM93.3611 15.1207V12.7855C93.3611 12.4663 93.4447 12.2017 93.612 11.9917C93.7792 11.7817 94.013 11.6767 94.3135 11.6767C94.9483 11.6767 95.2658 12.0155 95.2658 12.6931V15.1207H96.0651V12.5587C96.0651 12.0883 95.9389 11.7047 95.6867 11.4079C95.4344 11.1111 95.0731 10.9627 94.6026 10.9627C94.0357 10.9627 93.6162 11.1951 93.3441 11.6599V11.0803H92.5618V15.1207H93.3611ZM100.538 9.80346V11.0803H101.422V11.7943H100.538V13.8943C100.538 14.0847 100.582 14.2247 100.669 14.3143C100.757 14.4039 100.903 14.4487 101.107 14.4487C101.226 14.4487 101.331 14.4375 101.422 14.4151V15.0871C101.286 15.1375 101.105 15.1627 100.878 15.1627C100.526 15.1627 100.249 15.0619 100.044 14.8603C99.8404 14.6587 99.7384 14.3759 99.7384 14.0119V11.7943H98.9561V11.0803H99.1772C99.3869 11.0803 99.5442 11.0229 99.6491 10.9081C99.754 10.7933 99.8064 10.6435 99.8064 10.4587V9.80346H100.538ZM103.284 15.1207V12.7435C103.295 12.4299 103.383 12.1737 103.548 11.9749C103.712 11.7761 103.942 11.6767 104.236 11.6767C104.871 11.6767 105.189 12.0155 105.189 12.6931V15.1207H105.988V12.5587C105.988 12.0883 105.862 11.7047 105.61 11.4079C105.357 11.1111 104.996 10.9627 104.526 10.9627C103.97 10.9627 103.556 11.1587 103.284 11.5507V9.03906H102.485V15.1207H103.284ZM107.782 12.6847H110.018C110.007 12.3823 109.905 12.1345 109.712 11.9413C109.52 11.7481 109.248 11.6515 108.896 11.6515C108.579 11.6515 108.318 11.7537 108.114 11.9581C107.91 12.1625 107.799 12.4047 107.782 12.6847ZM110.826 13.9699L110.138 13.7347C109.956 14.2779 109.574 14.5495 108.99 14.5495C108.644 14.5495 108.353 14.4347 108.118 14.2051C107.883 13.9755 107.762 13.6815 107.757 13.3231H110.835C110.846 13.2559 110.852 13.1719 110.852 13.0711C110.852 12.4271 110.679 11.9133 110.333 11.5297C109.987 11.1461 109.505 10.9543 108.888 10.9543C108.355 10.9543 107.896 11.1559 107.51 11.5591C107.125 11.9623 106.932 12.4719 106.932 13.0879C106.932 13.7487 107.132 14.2737 107.531 14.6629C107.931 15.0521 108.417 15.2467 108.99 15.2467C109.449 15.2467 109.84 15.1277 110.163 14.8897C110.486 14.6517 110.707 14.3451 110.826 13.9699Z" fill="black"/>
<path id="AppStore" fill-rule="evenodd" clip-rule="evenodd" d="M53.6734 31.0802H55.4556L51.7007 21.5512H49.8096L46.0547 31.0802H47.7825L48.6804 28.6879H52.7618L53.6734 31.0802ZM50.7211 23.2984L52.1904 27.196H49.2518L50.7211 23.2984ZM58.1766 33.6338V30.341C58.5167 30.8383 59.2377 31.2415 60.1901 31.2415C62.0947 31.2415 63.3056 29.7631 63.3056 27.8008C63.3056 25.8655 62.2036 24.3871 60.2445 24.3871C59.2241 24.3871 58.4623 24.8575 58.1357 25.4219V24.5349H56.612V33.6338H58.1766ZM61.7274 27.8008C61.7274 29.0507 60.9927 29.8571 59.9452 29.8571C58.9112 29.8571 58.1629 29.0507 58.1629 27.8008C58.1629 26.5778 58.9112 25.7714 59.9452 25.7714C61.0063 25.7714 61.7274 26.5778 61.7274 27.8008ZM66.3938 33.6338V30.341C66.734 30.8383 67.455 31.2415 68.4074 31.2415C70.312 31.2415 71.5229 29.7631 71.5229 27.8008C71.5229 25.8655 70.4209 24.3871 68.4618 24.3871C67.4414 24.3871 66.6795 24.8575 66.353 25.4219V24.5349H64.8293V33.6338H66.3938ZM69.9447 27.8008C69.9447 29.0507 69.21 29.8571 68.1625 29.8571C67.1285 29.8571 66.3802 29.0507 66.3802 27.8008C66.3802 26.5778 67.1285 25.7714 68.1625 25.7714C69.2236 25.7714 69.9447 26.5778 69.9447 27.8008ZM82.8965 23.7822C82.6788 22.7205 81.7945 21.3496 79.5225 21.3496C77.7266 21.3496 76.2437 22.6667 76.2437 24.2661C76.2437 25.6907 77.2233 26.645 78.6926 26.9406L80.0531 27.2229C80.8829 27.3976 81.3455 27.8949 81.3455 28.5131C81.3455 29.2523 80.7469 29.8302 79.5905 29.8302C78.2028 29.8302 77.4818 28.9163 77.3865 27.9218L75.8628 28.3518C76.0124 29.7227 77.1416 31.2818 79.5905 31.2818C81.7945 31.2818 83.0053 29.8706 83.0053 28.3922C83.0053 27.0482 82.0938 25.9864 80.3932 25.6504L79.0055 25.3682C78.2572 25.2069 77.8763 24.7499 77.8763 24.1451C77.8763 23.4194 78.5565 22.7742 79.5361 22.7742C80.8285 22.7742 81.3319 23.6478 81.4271 24.2392L82.8965 23.7822ZM86.5698 22.5323H85.1412V23.5135C85.1412 24.0914 84.8283 24.5349 84.1209 24.5349H83.7808V25.9192H85.0052V29.212C85.0052 30.4351 85.7671 31.1608 86.9915 31.1608C87.5629 31.1608 87.8622 31.0533 87.9574 31.013V29.7227L87.7832 29.7495C87.6753 29.7633 87.5376 29.7765 87.4132 29.7765C86.8282 29.7765 86.5698 29.5346 86.5698 28.9567V25.9192H87.9438V24.5349H86.5698V22.5323ZM92.447 29.884C91.4811 29.884 90.5968 29.1582 90.5968 27.8008C90.5968 26.4434 91.4811 25.7445 92.447 25.7445C93.4266 25.7445 94.2973 26.4434 94.2973 27.8008C94.2973 29.1717 93.4266 29.884 92.447 29.884ZM92.447 24.3333C90.4743 24.3333 89.0186 25.7983 89.0186 27.8008C89.0186 29.8168 90.4743 31.2818 92.447 31.2818C94.4333 31.2818 95.889 29.8168 95.889 27.8008C95.889 25.7983 94.4333 24.3333 92.447 24.3333ZM101.29 24.4946C101.222 24.4811 101.059 24.4543 100.868 24.4543C99.9977 24.4543 99.263 24.8709 98.9501 25.5832V24.5349H97.4128V31.0802H98.9909V27.9621C98.9909 26.7391 99.5487 26.0402 100.773 26.0402C100.936 26.0402 101.113 26.0536 101.29 26.0805V24.4946ZM103.685 27.0885C103.739 26.3896 104.31 25.637 105.304 25.637C106.392 25.637 106.909 26.3224 106.936 27.0885H103.685ZM107.113 28.7954L108.446 29.212C108.093 30.3544 107.045 31.2818 105.453 31.2818C103.657 31.2818 102.066 29.9915 102.066 27.7739C102.066 25.7042 103.617 24.3333 105.29 24.3333C107.331 24.3333 108.528 25.6639 108.528 27.7336C108.528 27.989 108.501 28.204 108.487 28.2309H103.644C103.685 29.2255 104.474 29.9378 105.453 29.9378C106.406 29.9378 106.895 29.4405 107.113 28.7954Z" fill="black"/>
<g id="apple">
<path id="Shape" fill-rule="evenodd" clip-rule="evenodd" d="M26.6947 12.2119C27.4338 11.4247 27.9339 10.3311 27.7973 9.24023C26.7315 9.27808 25.4402 9.86227 24.6766 10.6491C23.9903 11.3466 23.3906 12.4603 23.5507 13.5292C24.7404 13.6101 25.9541 12.9981 26.6947 12.2119ZM28.9632 19.7419C28.9401 17.2968 30.9085 16.1236 30.9969 16.0659C29.8906 14.4064 28.1667 14.179 27.5534 14.1537C26.087 14.0004 24.692 15.0379 23.9471 15.0379C23.2049 15.0379 22.0569 14.1741 20.8402 14.197C19.2412 14.223 17.7673 15.1496 16.9451 16.6183C15.2838 19.5722 16.519 23.9494 18.1386 26.3451C18.9298 27.5183 19.8726 28.8342 21.1105 28.7862C22.3042 28.7392 22.7549 27.9957 24.1968 27.9957C25.6378 27.9957 26.0434 28.7862 27.3046 28.7624C28.5879 28.7392 29.4013 27.5669 30.187 26.3906C31.0948 25.0308 31.4684 23.7135 31.4911 23.6466C31.4623 23.632 28.9892 22.6626 28.9632 19.7419Z" fill="black"/>
</g>
</g>
</svg>
