<svg width="24" height="24" viewBox="0 0 24 24" fill="none" xmlns="http://www.w3.org/2000/svg">
<path d="M11.8186 0C9.36376 0 7.00951 0.921872 5.27371 2.56282C3.53791 4.20376 2.56275 6.42935 2.56275 8.75V13.16C2.56294 13.3539 2.51541 13.5452 2.42391 13.7187L0.153597 18.01C0.0426947 18.2197 -0.0096725 18.4526 0.00146941 18.6868C0.0126113 18.9209 0.0868923 19.1485 0.217257 19.3479C0.347622 19.5473 0.529743 19.7119 0.746322 19.826C0.9629 19.9401 1.20675 20 1.4547 20H22.1824C22.4304 20 22.6742 19.9401 22.8908 19.826C23.1074 19.7119 23.2895 19.5473 23.4199 19.3479C23.5502 19.1485 23.6245 18.9209 23.6356 18.6868C23.6468 18.4526 23.5944 18.2197 23.4835 18.01L21.2145 13.7187C21.1226 13.5453 21.0746 13.354 21.0744 13.16V8.75C21.0744 6.42935 20.0992 4.20376 18.3634 2.56282C16.6276 0.921872 14.2733 0 11.8186 0ZM11.8186 23.75C10.9979 23.7504 10.1973 23.5102 9.52711 23.0624C8.85691 22.6147 8.35012 21.9814 8.07657 21.25H15.5605C15.287 21.9814 14.7802 22.6147 14.11 23.0624C13.4398 23.5102 12.6392 23.7504 11.8186 23.75Z" fill="white" fill-opacity="0.56"/>
</svg>
